# xmcd
#
# Track frame offsets:
#	225
#	22478
#	39514
#	61412
#	77991
#	95439
#	113878
#	139820
#	156834
#	176645
#	191649
#	203708
#	225936
#	251982
#	276547
#	296524
#
# Disc length: 4226 seconds
#
# Revision: 3
# Processed by: cddbd v1.5.2PL0 Copyright (c) Steve Scherf et al.
# Submitted via: audiograbber 1.83.01
#
DISCID=f2107f10
DTITLE=White,Barry and Friends - Cool Songs
DYEAR=1900
DGENRE=Soul
TTITLE0=White,Barry and His Orchestra - Love Makin' Music
TTITLE1=White,Barry and His Orchestra - Relax To The Max
TTITLE2=White,Barry - The Better Love Is/the Worse It Is
TTITLE3=White,Barry - You
TTITLE4=White,Barry - We Can't Let Go Of Love
TTITLE5=White,Barry and White,Glodean and The Love Unlimited Orchestra - Gotta Be W
TTITLE5=here You Are
TTITLE6=White,Barry and His Orchestra - America
TTITLE7=White,Barry and His Orchestra - Let Me In And Let's Begin With Love
TTITLE8=White,Barry and His Orchestra - Your Love, Your Love
TTITLE9=White,Barry and His Orchestra - Our Theme, Part I
TTITLE10=White,Barry and His Orchestra - Our Theme, Part Ii
TTITLE11=The Love Unlimited Orchestra - Bayou
TTITLE12=White,Barry and His Orchestra - Don't Forget...remember
TTITLE13=White,Barry and White,Glodean and The Love Unlimited Orchestra - If You Wa
TTITLE13=nt Me, Say It
TTITLE14=White,Barry and White,Glodean and The Love Unlimited Orchestra - I'm Givin
TTITLE14=g You A Love
TTITLE15=Gaynor,Gloria Feat. Hayes,Iaac - You're The First, The Last, The Every
TTITLE15=thing
EXTD=
EXTT0=
EXTT1=
EXTT2=
EXTT3=
EXTT4=
EXTT5=
EXTT6=
EXTT7=
EXTT8=
EXTT9=
EXTT10=
EXTT11=
EXTT12=
EXTT13=
EXTT14=
EXTT15=
PLAYORDER=
